<svg width="838" height="150" viewBox="0 0 838 150" fill="none" xmlns="http://www.w3.org/2000/svg">
<path d="M95.8352 50.5568C95.2197 48.0473 94.2491 45.8456 92.9233 43.9517C91.5975 42.0104 89.9403 40.3769 87.9517 39.0511C86.0104 37.678 83.7377 36.66 81.1335 35.9972C78.5767 35.2869 75.7595 34.9318 72.6818 34.9318C66.053 34.9318 60.3949 36.518 55.7074 39.6903C51.0672 42.8627 47.5161 47.4318 45.054 53.3977C42.6392 59.3636 41.4318 66.5606 41.4318 74.9886C41.4318 83.5114 42.5919 90.803 44.9119 96.8636C47.232 102.924 50.6884 107.564 55.2812 110.784C59.8741 114.004 65.5795 115.614 72.3977 115.614C78.411 115.614 83.4063 114.738 87.3835 112.986C91.4081 111.234 94.4148 108.748 96.4034 105.528C98.392 102.309 99.3864 98.5208 99.3864 94.1648L106.205 94.875H72.9659V66.75H137.455V86.9205C137.455 100.178 134.637 111.518 129.003 120.94C123.416 130.315 115.698 137.512 105.849 142.531C96.0483 147.503 84.803 149.989 72.1136 149.989C57.9564 149.989 45.5275 146.982 34.8267 140.969C24.1259 134.955 15.7689 126.385 9.75568 115.259C3.78977 104.132 0.806819 90.8977 0.806819 75.5568C0.806819 63.5303 2.62974 52.8769 6.27557 43.5966C9.96875 34.3163 15.0824 26.4801 21.6165 20.0881C28.1506 13.6487 35.7027 8.79545 44.2727 5.5284C52.8428 2.21401 62.0284 0.556813 71.8295 0.556813C80.447 0.556813 88.4489 1.78788 95.8352 4.25C103.269 6.66477 109.827 10.1212 115.509 14.6193C121.238 19.0701 125.854 24.3494 129.358 30.4574C132.862 36.5653 134.992 43.2651 135.75 50.5568H95.8352ZM155.867 148V2.54545H218.651C229.447 2.54545 238.893 4.51041 246.989 8.44034C255.086 12.3703 261.383 18.0284 265.881 25.4148C270.379 32.8011 272.629 41.6553 272.629 51.9773C272.629 62.3939 270.308 71.1771 265.668 78.3267C261.076 85.4763 254.612 90.8741 246.279 94.5199C237.993 98.1657 228.31 99.9886 217.231 99.9886H179.731V69.3068H209.276C213.916 69.3068 217.87 68.7386 221.137 67.6023C224.451 66.4186 226.985 64.5483 228.737 61.9915C230.536 59.4347 231.435 56.0966 231.435 51.9773C231.435 47.8106 230.536 44.4252 228.737 41.821C226.985 39.1695 224.451 37.2282 221.137 35.9972C217.87 34.7187 213.916 34.0795 209.276 34.0795H195.356V148H155.867ZM241.094 81.2386L277.458 148H234.56L199.049 81.2386H241.094ZM430.37 75.2727C430.37 91.4659 427.221 105.126 420.924 116.253C414.627 127.332 406.128 135.737 395.427 141.466C384.726 147.148 372.794 149.989 359.631 149.989C346.374 149.989 334.395 147.124 323.694 141.395C313.04 135.618 304.565 127.19 298.268 116.111C292.018 104.984 288.893 91.3712 288.893 75.2727C288.893 59.0795 292.018 45.4432 298.268 34.3636C304.565 23.2367 313.04 14.8324 323.694 9.15056C334.395 3.4214 346.374 0.556813 359.631 0.556813C372.794 0.556813 384.726 3.4214 395.427 9.15056C406.128 14.8324 414.627 23.2367 420.924 34.3636C427.221 45.4432 430.37 59.0795 430.37 75.2727ZM389.745 75.2727C389.745 66.5606 388.585 59.2216 386.265 53.2557C383.992 47.2424 380.607 42.697 376.109 39.6193C371.658 36.4943 366.165 34.9318 359.631 34.9318C353.097 34.9318 347.581 36.4943 343.083 39.6193C338.632 42.697 335.247 47.2424 332.927 53.2557C330.654 59.2216 329.518 66.5606 329.518 75.2727C329.518 83.9848 330.654 91.3475 332.927 97.3608C335.247 103.327 338.632 107.872 343.083 110.997C347.581 114.075 353.097 115.614 359.631 115.614C366.165 115.614 371.658 114.075 376.109 110.997C380.607 107.872 383.992 103.327 386.265 97.3608C388.585 91.3475 389.745 83.9848 389.745 75.2727ZM527.05 48C526.671 43.2652 524.895 39.572 521.723 36.9205C518.598 34.2689 513.839 32.9432 507.447 32.9432C503.375 32.9432 500.037 33.4403 497.433 34.4347C494.876 35.3816 492.982 36.6837 491.751 38.3409C490.52 39.9981 489.881 41.892 489.834 44.0227C489.739 45.7746 490.047 47.3608 490.757 48.7812C491.515 50.1544 492.698 51.4091 494.308 52.5455C495.918 53.6345 497.978 54.6288 500.487 55.5284C502.997 56.428 505.98 57.233 509.436 57.9432L521.368 60.5C529.417 62.2045 536.306 64.4536 542.036 67.2472C547.765 70.0407 552.452 73.3314 556.098 77.1193C559.744 80.8598 562.419 85.0739 564.124 89.7614C565.875 94.4489 566.775 99.5625 566.822 105.102C566.775 114.667 564.384 122.763 559.649 129.392C554.914 136.021 548.143 141.063 539.337 144.52C530.577 147.976 520.042 149.705 507.732 149.705C495.089 149.705 484.057 147.834 474.635 144.094C465.26 140.353 457.968 134.6 452.76 126.835C447.599 119.023 444.995 109.032 444.947 96.8636H482.447C482.684 101.314 483.797 105.055 485.786 108.085C487.774 111.116 490.568 113.412 494.166 114.974C497.812 116.537 502.144 117.318 507.163 117.318C511.377 117.318 514.905 116.797 517.746 115.756C520.587 114.714 522.741 113.27 524.209 111.423C525.677 109.577 526.434 107.47 526.482 105.102C526.434 102.877 525.7 100.936 524.28 99.2784C522.907 97.5739 520.634 96.0587 517.462 94.733C514.289 93.3598 510.004 92.0814 504.607 90.8977L490.118 87.7727C477.239 84.9792 467.083 80.3153 459.649 73.7812C452.263 67.1998 448.593 58.2273 448.641 46.8636C448.593 37.6307 451.055 29.5578 456.027 22.6449C461.046 15.6847 467.982 10.2633 476.837 6.38068C485.738 2.4981 495.942 0.556813 507.447 0.556813C519.19 0.556813 529.346 2.52178 537.916 6.4517C546.486 10.3816 553.091 15.9214 557.732 23.071C562.419 30.1733 564.786 38.483 564.834 48H527.05ZM660.253 48C659.874 43.2652 658.098 39.572 654.926 36.9205C651.801 34.2689 647.043 32.9432 640.651 32.9432C636.579 32.9432 633.241 33.4403 630.636 34.4347C628.08 35.3816 626.186 36.6837 624.955 38.3409C623.723 39.9981 623.084 41.892 623.037 44.0227C622.942 45.7746 623.25 47.3608 623.96 48.7812C624.718 50.1544 625.902 51.4091 627.511 52.5455C629.121 53.6345 631.181 54.6288 633.69 55.5284C636.2 56.428 639.183 57.233 642.639 57.9432L654.571 60.5C662.62 62.2045 669.509 64.4536 675.239 67.2472C680.968 70.0407 685.655 73.3314 689.301 77.1193C692.947 80.8598 695.622 85.0739 697.327 89.7614C699.079 94.4489 699.978 99.5625 700.026 105.102C699.978 114.667 697.587 122.763 692.852 129.392C688.117 136.021 681.347 141.063 672.54 144.52C663.78 147.976 653.245 149.705 640.935 149.705C628.293 149.705 617.26 147.834 607.838 144.094C598.463 140.353 591.171 134.6 585.963 126.835C580.802 119.023 578.198 109.032 578.151 96.8636H615.651C615.887 101.314 617 105.055 618.989 108.085C620.977 111.116 623.771 113.412 627.369 114.974C631.015 116.537 635.348 117.318 640.366 117.318C644.58 117.318 648.108 116.797 650.949 115.756C653.79 114.714 655.944 113.27 657.412 111.423C658.88 109.577 659.637 107.47 659.685 105.102C659.637 102.877 658.903 100.936 657.483 99.2784C656.11 97.5739 653.837 96.0587 650.665 94.733C647.492 93.3598 643.207 92.0814 637.81 90.8977L623.321 87.7727C610.442 84.9792 600.286 80.3153 592.852 73.7812C585.466 67.1998 581.796 58.2273 581.844 46.8636C581.796 37.6307 584.259 29.5578 589.23 22.6449C594.249 15.6847 601.186 10.2633 610.04 6.38068C618.941 2.4981 629.145 0.556813 640.651 0.556813C652.393 0.556813 662.549 2.52178 671.119 6.4517C679.689 10.3816 686.295 15.9214 690.935 23.071C695.622 30.1733 697.99 38.483 698.037 48H660.253ZM711.07 34.3636V2.54545H837.49V34.3636H793.74V148H754.82V34.3636H711.07Z" fill="#231F20"/>
</svg>
