<?xml version="1.0" encoding="UTF-8"?>
<!DOCTYPE svg PUBLIC "-//W3C//DTD SVG 1.1//EN" "http://www.w3.org/Graphics/SVG/1.1/DTD/svg11.dtd">
<svg xmlns="http://www.w3.org/2000/svg" version="1.1" width="1000px" height="1000px" style="shape-rendering:geometricPrecision; text-rendering:geometricPrecision; image-rendering:optimizeQuality; fill-rule:evenodd; clip-rule:evenodd" xmlns:xlink="http://www.w3.org/1999/xlink">
<g><path style="opacity:0.989" fill="#231F20" d="M 10.5,77.5 C 113.834,77.3333 217.167,77.5 320.5,78C 289.765,117.481 259.765,157.481 230.5,198C 286.951,296.619 343.617,395.119 400.5,493.5C 348.257,488.232 295.924,482.399 243.5,476C 241.671,475.727 240.171,474.893 239,473.5C 162.557,341.609 86.3905,209.609 10.5,77.5 Z"/></g>
<g><path style="opacity:0.988" fill="#231F20" d="M 528.5,77.5 C 681.835,77.1667 835.168,77.5 988.5,78.5C 937.2,167.629 885.7,256.629 834,345.5C 813.976,299.766 794.143,253.933 774.5,208C 660.834,207.5 547.167,207.333 433.5,207.5C 433.351,206.448 433.517,205.448 434,204.5C 465.717,162.289 497.217,119.956 528.5,77.5 Z"/></g>
<g><path style="opacity:0.987" fill="#231F20" d="M 662.5,373.5 C 664.686,374.823 666.186,376.823 667,379.5C 687.029,426.391 707.196,473.225 727.5,520C 651.457,653.261 574.79,786.094 497.5,918.5C 445.216,829.106 393.716,739.44 343,649.5C 392.701,656.358 442.534,662.192 492.5,667C 549.305,569.221 605.971,471.388 662.5,373.5 Z"/></g>
</svg>
